solid OpenSCAD_Model
  facet normal 0.1558 0.0899514 0.983684
    outer loop
      vertex 10.168 0 29.9021
      vertex 5.08402 8.80578 29.9021
      vertex 9.55 0 30
    endloop
  endfacet
  facet normal 0.480384 0.27735 0.832051
    outer loop
      vertex 10.8883 0 29.4863
      vertex 5.08402 8.80578 29.9021
      vertex 10.168 0 29.9021
    endloop
  endfacet
  facet normal 0.158596 -0.980017 0.120058
    outer loop
      vertex 5.775 -10.0026 28
      vertex 1.45335 -13.8277 2.48528
      vertex 26.0352 -9.84959 2.48528
    endloop
  endfacet
  facet normal -0.866025 0.5 0
    outer loop
      vertex -12.7018 5.6552 -2.48528
      vertex -11.2484 8.17247 2.48528
      vertex -11.2484 8.17247 -2.48528
    endloop
  endfacet
  facet normal -0.866025 0.5 0
    outer loop
      vertex -11.2484 8.17247 2.48528
      vertex -12.7018 5.6552 -2.48528
      vertex -12.7018 5.6552 2.48528
    endloop
  endfacet
  facet normal 0.624526 -0.538483 0.565688
    outer loop
      vertex 33.0124 -5.82133 2.48528
      vertex 5.44413 -9.42951 29.4863
      vertex 5.68855 -9.85285 28.8135
    endloop
  endfacet
  facet normal 0 0.983476 0.181038
    outer loop
      vertex 5.775 10.0026 28
      vertex -5.68855 9.85285 28.8135
      vertex 5.68855 9.85285 28.8135
    endloop
  endfacet
  facet normal 0 0.983476 0.181038
    outer loop
      vertex -5.68855 9.85285 28.8135
      vertex 5.775 10.0026 28
      vertex -5.775 10.0026 28
    endloop
  endfacet
  facet normal -0.733 0.423198 0.532555
    outer loop
      vertex -5.68855 9.85285 28.8135
      vertex -11.3771 0 28.8135
      vertex -10.8883 0 29.4863
    endloop
  endfacet
  facet normal 0.1558 0.0899514 0.983684
    outer loop
      vertex 5.08402 8.80578 29.9021
      vertex 4.775 8.27054 30
      vertex 9.55 0 30
    endloop
  endfacet
  facet normal 0 0 -1
    outer loop
      vertex 30.3653 0 -6
      vertex 32.2002 0 -6
      vertex 32.0429 -1.49701 -6
    endloop
  endfacet
  facet normal 0 0 -1
    outer loop
      vertex 30.3653 0 -6
      vertex 32.0429 -1.49701 -6
      vertex 31.5777 -2.92859 -6
    endloop
  endfacet
  facet normal 0 0 -1
    outer loop
      vertex 32.2002 0 -6
      vertex 30.3653 0 -6
      vertex 32.0429 1.49701 -6
    endloop
  endfacet
  facet normal 0 0 -1
    outer loop
      vertex 30.3653 0 -6
      vertex 31.5777 -2.92859 -6
      vertex 30.8251 -4.23218 -6
    endloop
  endfacet
  facet normal -0 0 -1
    outer loop
      vertex 32.0429 1.49701 -6
      vertex 30.3653 0 -6
      vertex 31.5777 2.92859 -6
    endloop
  endfacet
  facet normal -0 0 -1
    outer loop
      vertex 31.5777 2.92859 -6
      vertex 30.3653 0 -6
      vertex 30.8251 4.23218 -6
    endloop
  endfacet
  facet normal 0 0 -1
    outer loop
      vertex 27.1826 -5.5125 -6
      vertex 30.8251 -4.23218 -6
      vertex 29.8179 -5.3508 -6
    endloop
  endfacet
  facet normal 0 0 -1
    outer loop
      vertex 27.1826 -5.5125 -6
      vertex 29.8179 -5.3508 -6
      vertex 28.6001 -6.23557 -6
    endloop
  endfacet
  facet normal 0 0 -1
    outer loop
      vertex 27.1826 -5.5125 -6
      vertex 28.6001 -6.23557 -6
      vertex 27.225 -6.84781 -6
    endloop
  endfacet
  facet normal -0 0 -1
    outer loop
      vertex 30.8251 -4.23218 -6
      vertex 27.1826 -5.5125 -6
      vertex 30.3653 0 -6
    endloop
  endfacet
  facet normal 0 0 -1
    outer loop
      vertex 25.7526 -7.16077 -6
      vertex 27.1826 -5.5125 -6
      vertex 27.225 -6.84781 -6
    endloop
  endfacet
  facet normal 0 0 -1
    outer loop
      vertex 25.7526 -7.16077 -6
      vertex 20.8174 -5.5125 -6
      vertex 27.1826 -5.5125 -6
    endloop
  endfacet
  facet normal 0 0 -1
    outer loop
      vertex 20.8174 -5.5125 -6
      vertex 8.02517 0 -6
      vertex 17.6347 0 -6
    endloop
  endfacet
  facet normal -0 0 -1
    outer loop
      vertex 20.8174 -5.5125 -6
      vertex 4.01258 -6.95 -6
      vertex 8.02517 0 -6
    endloop
  endfacet
  facet normal 0 0 -1
    outer loop
      vertex 1.17074 -11.1389 -6
      vertex 20.8174 -5.5125 -6
      vertex 25.7526 -7.16077 -6
    endloop
  endfacet
  facet normal 0 0 -1
    outer loop
      vertex 20.8174 -5.5125 -6
      vertex 1.17074 -11.1389 -6
      vertex 4.01258 -6.95 -6
    endloop
  endfacet
  facet normal 0 0 -1
    outer loop
      vertex -1.17074 -11.1389 -6
      vertex 4.01258 -6.95 -6
      vertex 1.17074 -11.1389 -6
    endloop
  endfacet
  facet normal 0 0 -1
    outer loop
      vertex -4.01258 -6.95 -6
      vertex -1.17074 -11.1389 -6
      vertex -3.46106 -10.652 -6
    endloop
  endfacet
  facet normal 0 0 -1
    outer loop
      vertex -1.17074 -11.1389 -6
      vertex -4.01258 -6.95 -6
      vertex 4.01258 -6.95 -6
    endloop
  endfacet
  facet normal 0 0 -1
    outer loop
      vertex -5.60011 -9.69967 -6
      vertex -4.01258 -6.95 -6
      vertex -3.46106 -10.652 -6
    endloop
  endfacet
  facet normal 0 0 -1
    outer loop
      vertex -7.49441 -8.32338 -6
      vertex -4.01258 -6.95 -6
      vertex -5.60011 -9.69967 -6
    endloop
  endfacet
  facet normal 0 0 -1
    outer loop
      vertex -9.06116 -6.58332 -6
      vertex -4.01258 -6.95 -6
      vertex -7.49441 -8.32338 -6
    endloop
  endfacet
  facet normal 0 0 -1
    outer loop
      vertex -4.01258 -6.95 -6
      vertex -9.06116 -6.58332 -6
      vertex -8.02517 0 -6
    endloop
  endfacet
  facet normal 0 0 -1
    outer loop
      vertex 27.1826 5.5125 -6
      vertex 30.8251 4.23218 -6
      vertex 30.3653 0 -6
    endloop
  endfacet
  facet normal 0 0 -1
    outer loop
      vertex 30.8251 4.23218 -6
      vertex 27.1826 5.5125 -6
      vertex 29.8179 5.3508 -6
    endloop
  endfacet
  facet normal 0 0 -1
    outer loop
      vertex 29.8179 5.3508 -6
      vertex 27.1826 5.5125 -6
      vertex 28.6001 6.23557 -6
    endloop
  endfacet
  facet normal -0 0 -1
    outer loop
      vertex 28.6001 6.23557 -6
      vertex 27.1826 5.5125 -6
      vertex 27.225 6.84781 -6
    endloop
  endfacet
  facet normal 0 0 -1
    outer loop
      vertex 27.1826 5.5125 -6
      vertex 25.7526 7.16077 -6
      vertex 27.225 6.84781 -6
    endloop
  endfacet
  facet normal 0 0 -1
    outer loop
      vertex 20.8174 5.5125 -6
      vertex 25.7526 7.16077 -6
      vertex 27.1826 5.5125 -6
    endloop
  endfacet
  facet normal 0 0 -1
    outer loop
      vertex 8.02517 0 -6
      vertex 20.8174 5.5125 -6
      vertex 17.6347 0 -6
    endloop
  endfacet
  facet normal 0 0 -1
    outer loop
      vertex 4.01258 6.95 -6
      vertex 20.8174 5.5125 -6
      vertex 8.02517 0 -6
    endloop
  endfacet
  facet normal 0 0 -1
    outer loop
      vertex 1.17074 11.1389 -6
      vertex 20.8174 5.5125 -6
      vertex 4.01258 6.95 -6
    endloop
  endfacet
  facet normal 0 0 -1
    outer loop
      vertex 20.8174 5.5125 -6
      vertex 1.17074 11.1389 -6
      vertex 25.7526 7.16077 -6
    endloop
  endfacet
  facet normal 0 0 -1
    outer loop
      vertex 4.01258 6.95 -6
      vertex -1.17074 11.1389 -6
      vertex 1.17074 11.1389 -6
    endloop
  endfacet
  facet normal 0 0 -1
    outer loop
      vertex -4.01258 6.95 -6
      vertex -1.17074 11.1389 -6
      vertex 4.01258 6.95 -6
    endloop
  endfacet
  facet normal 0 0 -1
    outer loop
      vertex -1.17074 11.1389 -6
      vertex -4.01258 6.95 -6
      vertex -3.46106 10.652 -6
    endloop
  endfacet
  facet normal 0 0 -1
    outer loop
      vertex -4.01258 6.95 -6
      vertex -5.60011 9.69967 -6
      vertex -3.46106 10.652 -6
    endloop
  endfacet
  facet normal 0 0 -1
    outer loop
      vertex -4.01258 6.95 -6
      vertex -7.49441 8.32338 -6
      vertex -5.60011 9.69967 -6
    endloop
  endfacet
  facet normal 0 0 -1
    outer loop
      vertex -9.06116 6.58332 -6
      vertex -4.01258 6.95 -6
      vertex -8.02517 0 -6
    endloop
  endfacet
  facet normal 0 0 -1
    outer loop
      vertex -10.2319 -4.55554 -6
      vertex -8.02517 0 -6
      vertex -9.06116 -6.58332 -6
    endloop
  endfacet
  facet normal -0 0 -1
    outer loop
      vertex -4.01258 6.95 -6
      vertex -9.06116 6.58332 -6
      vertex -7.49441 8.32338 -6
    endloop
  endfacet
  facet normal 0 0 -1
    outer loop
      vertex -10.9555 -2.32866 -6
      vertex -8.02517 0 -6
      vertex -10.2319 -4.55554 -6
    endloop
  endfacet
  facet normal 0 0 -1
    outer loop
      vertex -8.02517 0 -6
      vertex -10.2319 4.55554 -6
      vertex -9.06116 6.58332 -6
    endloop
  endfacet
  facet normal 0 0 -1
    outer loop
      vertex -11.2002 0 -6
      vertex -8.02517 0 -6
      vertex -10.9555 -2.32866 -6
    endloop
  endfacet
  facet normal 0 0 -1
    outer loop
      vertex -8.02517 0 -6
      vertex -10.9555 2.32866 -6
      vertex -10.2319 4.55554 -6
    endloop
  endfacet
  facet normal 0 0 -1
    outer loop
      vertex -8.02517 0 -6
      vertex -11.2002 0 -6
      vertex -10.9555 2.32866 -6
    endloop
  endfacet
  facet normal 0.480384 -0.27735 0.832051
    outer loop
      vertex 10.168 0 29.9021
      vertex 5.08402 -8.80578 29.9021
      vertex 10.8883 0 29.4863
    endloop
  endfacet
  facet normal -0.851715 0.491738 0.181037
    outer loop
      vertex -5.775 10.0026 28
      vertex -11.55 0 28
      vertex -11.3771 0 28.8135
    endloop
  endfacet
  facet normal -0.687831 -0.397119 -0.607606
    outer loop
      vertex -11.2484 -8.17247 -2.48528
      vertex -12.7018 -5.6552 -2.48528
      vertex -10.2319 -4.55554 -6
    endloop
  endfacet
  facet normal 0 0.179903 0.983684
    outer loop
      vertex 5.08402 8.80578 29.9021
      vertex -4.775 8.27054 30
      vertex 4.775 8.27054 30
    endloop
  endfacet
  facet normal 0 0.179903 0.983684
    outer loop
      vertex -4.775 8.27054 30
      vertex 5.08402 8.80578 29.9021
      vertex -5.08402 8.80578 29.9021
    endloop
  endfacet
  facet normal -0.738574 -0.665015 0.11074
    outer loop
      vertex -5.775 -10.0026 28
      vertex -11.2484 -8.17247 2.48528
      vertex -9.30349 -10.3326 2.48528
    endloop
  endfacet
  facet normal 0.480384 0.27735 0.83205
    outer loop
      vertex 5.44413 9.42951 29.4863
      vertex 5.08402 8.80578 29.9021
      vertex 10.8883 0 29.4863
    endloop
  endfacet
  facet normal 0.68783 0.39712 0.607606
    outer loop
      vertex 33.1383 5.2625 2.70797
      vertex 33.0124 5.82133 2.48528
      vertex 32.7352 5.2625 3.16427
    endloop
  endfacet
  facet normal 0.687831 0.39712 0.607606
    outer loop
      vertex 33.1383 5.2625 2.70797
      vertex 34.0476 4.02826 2.48528
      vertex 33.0124 5.82133 2.48528
    endloop
  endfacet
  facet normal 0.687827 0.397116 0.607613
    outer loop
      vertex 34.0476 4.02826 2.48528
      vertex 33.1383 5.2625 2.70797
      vertex 33.8911 3.95858 2.70797
    endloop
  endfacet
  facet normal -0.165131 -0.776883 -0.607606
    outer loop
      vertex -1.45335 -13.8277 -2.48528
      vertex -4.29652 -13.2233 -2.48528
      vertex -3.46106 -10.652 -6
    endloop
  endfacet
  facet normal 0 -0.846395 0.532555
    outer loop
      vertex -5.68855 -9.85285 28.8135
      vertex 5.44413 -9.42951 29.4863
      vertex -5.44413 -9.42951 29.4863
    endloop
  endfacet
  facet normal 0 -0.846395 0.532555
    outer loop
      vertex 5.44413 -9.42951 29.4863
      vertex -5.68855 -9.85285 28.8135
      vertex 5.68855 -9.85285 28.8135
    endloop
  endfacet
  facet normal -0.851715 -0.491738 0.181037
    outer loop
      vertex -11.3771 0 28.8135
      vertex -11.55 0 28
      vertex -5.775 -10.0026 28
    endloop
  endfacet
  facet normal -0.994522 -0.104528 0
    outer loop
      vertex -13.6 -2.89077 -2.48528
      vertex -13.9038 0 2.48528
      vertex -13.9038 0 -2.48528
    endloop
  endfacet
  facet normal -0.994522 -0.104528 0
    outer loop
      vertex -13.9038 0 2.48528
      vertex -13.6 -2.89077 -2.48528
      vertex -13.6 -2.89077 2.48528
    endloop
  endfacet
  facet normal -0.406737 -0.913545 0
    outer loop
      vertex -6.95192 -12.0411 -2.48528
      vertex -4.29652 -13.2233 2.48528
      vertex -6.95192 -12.0411 2.48528
    endloop
  endfacet
  facet normal -0.406737 -0.913545 -0
    outer loop
      vertex -4.29652 -13.2233 2.48528
      vertex -6.95192 -12.0411 -2.48528
      vertex -4.29652 -13.2233 -2.48528
    endloop
  endfacet
  facet normal 0.687831 0.39712 -0.607606
    outer loop
      vertex 31.5777 2.92859 -6
      vertex 30.8251 4.23218 -6
      vertex 33.0124 5.82133 -2.48528
    endloop
  endfacet
  facet normal 0.617729 0.556205 0.55592
    outer loop
      vertex 31.627 7.35999 2.48528
      vertex 5.68855 9.85285 28.8135
      vertex 33.0124 5.82133 2.48528
    endloop
  endfacet
  facet normal -0.587785 -0.809017 0
    outer loop
      vertex -9.30349 -10.3326 -2.48528
      vertex -6.95192 -12.0411 2.48528
      vertex -9.30349 -10.3326 2.48528
    endloop
  endfacet
  facet normal -0.587785 -0.809017 -0
    outer loop
      vertex -6.95192 -12.0411 2.48528
      vertex -9.30349 -10.3326 -2.48528
      vertex -6.95192 -12.0411 -2.48528
    endloop
  endfacet
  facet normal -0.587785 0.809017 0
    outer loop
      vertex -6.95192 12.0411 -2.48528
      vertex -9.30349 10.3326 2.48528
      vertex -6.95192 12.0411 2.48528
    endloop
  endfacet
  facet normal -0.587785 0.809017 0
    outer loop
      vertex -9.30349 10.3326 2.48528
      vertex -6.95192 12.0411 -2.48528
      vertex -9.30349 10.3326 -2.48528
    endloop
  endfacet
  facet normal 0 -0.983476 0.181038
    outer loop
      vertex -5.775 -10.0026 28
      vertex 5.68855 -9.85285 28.8135
      vertex -5.68855 -9.85285 28.8135
    endloop
  endfacet
  facet normal 0 -0.983476 0.181038
    outer loop
      vertex 5.68855 -9.85285 28.8135
      vertex -5.775 -10.0026 28
      vertex 5.775 -10.0026 28
    endloop
  endfacet
  facet normal 0.1558 -0.0899514 0.983684
    outer loop
      vertex 9.55 0 30
      vertex 5.08402 -8.80578 29.9021
      vertex 10.168 0 29.9021
    endloop
  endfacet
  facet normal -0.990362 0.104091 0.0913653
    outer loop
      vertex -13.6 2.89077 2.48528
      vertex -13.9038 0 2.48528
      vertex -11.55 0 28
    endloop
  endfacet
  facet normal 0 0 1
    outer loop
      vertex 4.775 8.27054 30
      vertex 8.71799 0 30
      vertex 9.55 0 30
    endloop
  endfacet
  facet normal 0 0 1
    outer loop
      vertex 4.775 8.27054 30
      vertex 4.35899 7.55 30
      vertex 8.71799 0 30
    endloop
  endfacet
  facet normal 0 0 1
    outer loop
      vertex 4.775 8.27054 30
      vertex -4.35899 7.55 30
      vertex 4.35899 7.55 30
    endloop
  endfacet
  facet normal -0 0 1
    outer loop
      vertex -4.775 8.27054 30
      vertex -4.35899 7.55 30
      vertex 4.775 8.27054 30
    endloop
  endfacet
  facet normal 0 0 1
    outer loop
      vertex -4.775 8.27054 30
      vertex -8.71799 0 30
      vertex -4.35899 7.55 30
    endloop
  endfacet
  facet normal 0 -0 1
    outer loop
      vertex -8.71799 0 30
      vertex -4.775 8.27054 30
      vertex -9.55 0 30
    endloop
  endfacet
  facet normal -0 0 1
    outer loop
      vertex 8.71799 0 30
      vertex 4.775 -8.27054 30
      vertex 9.55 0 30
    endloop
  endfacet
  facet normal -0 0 1
    outer loop
      vertex 4.35899 -7.55 30
      vertex 4.775 -8.27054 30
      vertex 8.71799 0 30
    endloop
  endfacet
  facet normal -0 0 1
    outer loop
      vertex -4.35899 -7.55 30
      vertex 4.775 -8.27054 30
      vertex 4.35899 -7.55 30
    endloop
  endfacet
  facet normal 0 0 1
    outer loop
      vertex -4.35899 -7.55 30
      vertex -4.775 -8.27054 30
      vertex 4.775 -8.27054 30
    endloop
  endfacet
  facet normal 0 0 1
    outer loop
      vertex -8.71799 0 30
      vertex -4.775 -8.27054 30
      vertex -4.35899 -7.55 30
    endloop
  endfacet
  facet normal 0 0 1
    outer loop
      vertex -4.775 -8.27054 30
      vertex -8.71799 0 30
      vertex -9.55 0 30
    endloop
  endfacet
  facet normal -0.1558 0.0899514 0.983684
    outer loop
      vertex -5.08402 8.80578 29.9021
      vertex -9.55 0 30
      vertex -4.775 8.27054 30
    endloop
  endfacet
  facet normal -0.851715 0.491738 0.181038
    outer loop
      vertex -5.775 10.0026 28
      vertex -11.3771 0 28.8135
      vertex -5.68855 9.85285 28.8135
    endloop
  endfacet
  facet normal 0 0.846395 0.532555
    outer loop
      vertex 5.68855 9.85285 28.8135
      vertex -5.44413 9.42951 29.4863
      vertex 5.44413 9.42951 29.4863
    endloop
  endfacet
  facet normal 0 0.846395 0.532555
    outer loop
      vertex -5.44413 9.42951 29.4863
      vertex 5.68855 9.85285 28.8135
      vertex -5.68855 9.85285 28.8135
    endloop
  endfacet
  facet normal 0 0.5547 0.83205
    outer loop
      vertex 5.44413 9.42951 29.4863
      vertex -5.08402 8.80578 29.9021
      vertex 5.08402 8.80578 29.9021
    endloop
  endfacet
  facet normal 0 0.5547 0.83205
    outer loop
      vertex -5.08402 8.80578 29.9021
      vertex 5.44413 9.42951 29.4863
      vertex -5.44413 9.42951 29.4863
    endloop
  endfacet
  facet normal 0.617729 -0.556205 0.55592
    outer loop
      vertex 33.0124 -5.82133 2.48528
      vertex 5.68855 -9.85285 28.8135
      vertex 31.627 -7.35999 2.48528
    endloop
  endfacet
  facet normal 0.951057 -0.309017 0
    outer loop
      vertex 34.0476 -4.02826 2.48528
      vertex 34.6874 -2.05912 -2.48528
      vertex 34.6874 -2.05912 2.48528
    endloop
  endfacet
  facet normal 0.951057 -0.309017 0
    outer loop
      vertex 34.6874 -2.05912 -2.48528
      vertex 34.0476 -4.02826 2.48528
      vertex 34.0476 -4.02826 -2.48528
    endloop
  endfacet
  facet normal 0 -0.988948 0.14826
    outer loop
      vertex -1.45335 -13.8277 2.48528
      vertex 5.775 -10.0026 28
      vertex -5.775 -10.0026 28
    endloop
  endfacet
  facet normal 0 -0.988948 0.14826
    outer loop
      vertex 5.775 -10.0026 28
      vertex -1.45335 -13.8277 2.48528
      vertex 1.45335 -13.8277 2.48528
    endloop
  endfacet
  facet normal 0.406736 -0.913546 0
    outer loop
      vertex 28.0605 -9.41912 -2.48528
      vertex 29.9519 -8.57698 2.48528
      vertex 28.0605 -9.41912 2.48528
    endloop
  endfacet
  facet normal 0.406736 -0.913546 0
    outer loop
      vertex 29.9519 -8.57698 2.48528
      vertex 28.0605 -9.41912 -2.48528
      vertex 29.9519 -8.57698 -2.48528
    endloop
  endfacet
  facet normal -0.323046 -0.725573 -0.607606
    outer loop
      vertex -4.29652 -13.2233 -2.48528
      vertex -5.60011 -9.69967 -6
      vertex -3.46106 -10.652 -6
    endloop
  endfacet
  facet normal 0.126696 -0.782896 -0.609116
    outer loop
      vertex 25.7526 -7.16077 -6
      vertex 1.45335 -13.8277 -2.48528
      vertex 1.17074 -11.1389 -6
    endloop
  endfacet
  facet normal 0.126696 -0.782896 -0.609116
    outer loop
      vertex 1.45335 -13.8277 -2.48528
      vertex 25.7526 -7.16077 -6
      vertex 26.0352 -9.84959 -2.48528
    endloop
  endfacet
  facet normal -0.406737 0.913545 0
    outer loop
      vertex -4.29652 13.2233 -2.48528
      vertex -6.95192 12.0411 2.48528
      vertex -4.29652 13.2233 2.48528
    endloop
  endfacet
  facet normal -0.406737 0.913545 0
    outer loop
      vertex -6.95192 12.0411 2.48528
      vertex -4.29652 13.2233 -2.48528
      vertex -6.95192 12.0411 -2.48528
    endloop
  endfacet
  facet normal -0.165131 0.776883 -0.607606
    outer loop
      vertex -1.17074 11.1389 -6
      vertex -3.46106 10.652 -6
      vertex -1.45335 13.8277 -2.48528
    endloop
  endfacet
  facet normal 0.866025 0.500001 0
    outer loop
      vertex 34.0476 4.02826 2.48528
      vertex 33.0124 5.82133 -2.48528
      vertex 33.0124 5.82133 2.48528
    endloop
  endfacet
  facet normal 0.866025 0.500001 0
    outer loop
      vertex 33.0124 5.82133 -2.48528
      vertex 34.0476 4.02826 2.48528
      vertex 34.0476 4.02826 -2.48528
    endloop
  endfacet
  facet normal 0.480384 -0.27735 0.83205
    outer loop
      vertex 10.8883 0 29.4863
      vertex 5.08402 -8.80578 29.9021
      vertex 5.44413 -9.42951 29.4863
    endloop
  endfacet
  facet normal -0.480384 -0.27735 0.83205
    outer loop
      vertex -5.08402 -8.80578 29.9021
      vertex -10.8883 0 29.4863
      vertex -5.44413 -9.42951 29.4863
    endloop
  endfacet
  facet normal -0.945207 0.307117 0.11074
    outer loop
      vertex -12.7018 5.6552 2.48528
      vertex -13.6 2.89077 2.48528
      vertex -11.55 0 28
    endloop
  endfacet
  facet normal -0.990362 -0.104091 0.0913653
    outer loop
      vertex -11.55 0 28
      vertex -13.9038 0 2.48528
      vertex -13.6 -2.89077 2.48528
    endloop
  endfacet
  facet normal -0.585327 -0.805633 0.0913653
    outer loop
      vertex -5.775 -10.0026 28
      vertex -9.30349 -10.3326 2.48528
      vertex -6.95192 -12.0411 2.48528
    endloop
  endfacet
  facet normal -0.687831 -0.397119 -0.607606
    outer loop
      vertex -9.06116 -6.58332 -6
      vertex -11.2484 -8.17247 -2.48528
      vertex -10.2319 -4.55554 -6
    endloop
  endfacet
  facet normal -0.207912 -0.978148 0
    outer loop
      vertex -4.29652 -13.2233 -2.48528
      vertex -1.45335 -13.8277 2.48528
      vertex -4.29652 -13.2233 2.48528
    endloop
  endfacet
  facet normal -0.207912 -0.978148 -0
    outer loop
      vertex -1.45335 -13.8277 2.48528
      vertex -4.29652 -13.2233 -2.48528
      vertex -1.45335 -13.8277 -2.48528
    endloop
  endfacet
  facet normal -0.206633 -0.972131 0.11074
    outer loop
      vertex -1.45335 -13.8277 2.48528
      vertex -5.775 -10.0026 28
      vertex -4.29652 -13.2233 2.48528
    endloop
  endfacet
  facet normal 0.1558 -0.0899514 0.983684
    outer loop
      vertex 9.55 0 30
      vertex 4.775 -8.27054 30
      vertex 5.08402 -8.80578 29.9021
    endloop
  endfacet
  facet normal -0.755366 -0.245433 -0.607606
    outer loop
      vertex -10.2319 -4.55554 -6
      vertex -13.6 -2.89077 -2.48528
      vertex -10.9555 -2.32866 -6
    endloop
  endfacet
  facet normal -0.856454 -0.494474 0.14826
    outer loop
      vertex -5.775 -10.0026 28
      vertex -11.55 0 28
      vertex -11.2484 -8.17247 2.48528
    endloop
  endfacet
  facet normal -0.866025 -0.5 0
    outer loop
      vertex -11.2484 -8.17247 -2.48528
      vertex -12.7018 -5.6552 2.48528
      vertex -12.7018 -5.6552 -2.48528
    endloop
  endfacet
  facet normal -0.866025 -0.5 0
    outer loop
      vertex -12.7018 -5.6552 2.48528
      vertex -11.2484 -8.17247 -2.48528
      vertex -11.2484 -8.17247 2.48528
    endloop
  endfacet
  facet normal -0.856454 0.494474 0.14826
    outer loop
      vertex -11.2484 8.17247 2.48528
      vertex -11.55 0 28
      vertex -5.775 10.0026 28
    endloop
  endfacet
  facet normal -0.687831 0.397119 -0.607606
    outer loop
      vertex -10.2319 4.55554 -6
      vertex -12.7018 5.6552 -2.48528
      vertex -11.2484 8.17247 -2.48528
    endloop
  endfacet
  facet normal -0.733 -0.423198 0.532555
    outer loop
      vertex -5.44413 -9.42951 29.4863
      vertex -10.8883 0 29.4863
      vertex -5.68855 -9.85285 28.8135
    endloop
  endfacet
  facet normal -0.1558 -0.0899514 0.983684
    outer loop
      vertex -4.775 -8.27054 30
      vertex -9.55 0 30
      vertex -5.08402 -8.80578 29.9021
    endloop
  endfacet
  facet normal -0.480384 -0.27735 0.832051
    outer loop
      vertex -10.168 0 29.9021
      vertex -10.8883 0 29.4863
      vertex -5.08402 -8.80578 29.9021
    endloop
  endfacet
  facet normal -0.480384 0.27735 0.832051
    outer loop
      vertex -5.08402 8.80578 29.9021
      vertex -10.8883 0 29.4863
      vertex -10.168 0 29.9021
    endloop
  endfacet
  facet normal 0.205325 0.965979 0.157248
    outer loop
      vertex 26.0352 9.84959 2.48528
      vertex 5.775 10.0026 28
      vertex 28.0605 9.41912 2.48528
    endloop
  endfacet
  facet normal -0.733 0.423198 0.532555
    outer loop
      vertex -5.68855 9.85285 28.8135
      vertex -10.8883 0 29.4863
      vertex -5.44413 9.42951 29.4863
    endloop
  endfacet
  facet normal -0.480384 0.27735 0.83205
    outer loop
      vertex -5.44413 9.42951 29.4863
      vertex -10.8883 0 29.4863
      vertex -5.08402 8.80578 29.9021
    endloop
  endfacet
  facet normal 0.68783 -0.39712 0.607606
    outer loop
      vertex 32.7352 -5.2625 3.16427
      vertex 32.2432 -5.2625 3.72125
      vertex 33.0124 -5.82133 2.48528
    endloop
  endfacet
  facet normal 0.667949 -0.38564 0.636495
    outer loop
      vertex 18.5495 -1.08445 20.7894
      vertex 10.8883 0 29.4863
      vertex 18.906 -1.70201 20.0411
    endloop
  endfacet
  facet normal 0.386183 -0.867382 0.313863
    outer loop
      vertex 29.9519 -8.57698 2.48528
      vertex 5.68855 -9.85285 28.8135
      vertex 28.0605 -9.41912 2.48528
    endloop
  endfacet
  facet normal 0.255123 -0.945742 0.201206
    outer loop
      vertex 28.0605 -9.41912 2.48528
      vertex 5.68855 -9.85285 28.8135
      vertex 5.775 -10.0026 28
    endloop
  endfacet
  facet normal 0.687827 -0.397116 0.607613
    outer loop
      vertex 33.1383 -5.2625 2.70797
      vertex 34.0476 -4.02826 2.48528
      vertex 33.8911 -3.95858 2.70797
    endloop
  endfacet
  facet normal 0.687831 -0.39712 0.607606
    outer loop
      vertex 34.0476 -4.02826 2.48528
      vertex 33.1383 -5.2625 2.70797
      vertex 33.0124 -5.82133 2.48528
    endloop
  endfacet
  facet normal 0.68783 -0.39712 0.607606
    outer loop
      vertex 32.7352 -5.2625 3.16427
      vertex 33.0124 -5.82133 2.48528
      vertex 33.1383 -5.2625 2.70797
    endloop
  endfacet
  facet normal -0.466842 -0.642552 -0.607606
    outer loop
      vertex -5.60011 -9.69967 -6
      vertex -9.30349 -10.3326 -2.48528
      vertex -7.49441 -8.32338 -6
    endloop
  endfacet
  facet normal 0 -0.794239 -0.607606
    outer loop
      vertex -1.17074 -11.1389 -6
      vertex 1.45335 -13.8277 -2.48528
      vertex -1.45335 -13.8277 -2.48528
    endloop
  endfacet
  facet normal 0 -0.794239 -0.607606
    outer loop
      vertex 1.45335 -13.8277 -2.48528
      vertex -1.17074 -11.1389 -6
      vertex 1.17074 -11.1389 -6
    endloop
  endfacet
  facet normal -0.738574 0.665015 0.11074
    outer loop
      vertex -9.30349 10.3326 2.48528
      vertex -11.2484 8.17247 2.48528
      vertex -5.775 10.0026 28
    endloop
  endfacet
  facet normal -0.585327 0.805633 0.0913653
    outer loop
      vertex -6.95192 12.0411 2.48528
      vertex -9.30349 10.3326 2.48528
      vertex -5.775 10.0026 28
    endloop
  endfacet
  facet normal 0.525209 0.722887 0.448987
    outer loop
      vertex 29.9519 8.57698 2.48528
      vertex 5.68855 9.85285 28.8135
      vertex 31.627 7.35999 2.48528
    endloop
  endfacet
  facet normal -0.733 -0.423198 0.532555
    outer loop
      vertex -10.8883 0 29.4863
      vertex -11.3771 0 28.8135
      vertex -5.68855 -9.85285 28.8135
    endloop
  endfacet
  facet normal -0.851715 -0.491738 0.181038
    outer loop
      vertex -5.68855 -9.85285 28.8135
      vertex -11.3771 0 28.8135
      vertex -5.775 -10.0026 28
    endloop
  endfacet
  facet normal 0.743145 -0.66913 0
    outer loop
      vertex 31.627 -7.35999 2.48528
      vertex 33.0124 -5.82133 -2.48528
      vertex 33.0124 -5.82133 2.48528
    endloop
  endfacet
  facet normal 0.743145 -0.66913 0
    outer loop
      vertex 33.0124 -5.82133 -2.48528
      vertex 31.627 -7.35999 2.48528
      vertex 31.627 -7.35999 -2.48528
    endloop
  endfacet
  facet normal 0.667949 -0.385641 0.636494
    outer loop
      vertex 5.44413 -9.42951 29.4863
      vertex 18.906 -1.70201 20.0411
      vertex 10.8883 0 29.4863
    endloop
  endfacet
  facet normal 0.667949 -0.38564 0.636495
    outer loop
      vertex 20.9617 -5.2625 15.7266
      vertex 5.44413 -9.42951 29.4863
      vertex 25.7936 -5.2625 10.6559
    endloop
  endfacet
  facet normal 0.667949 -0.385641 0.636494
    outer loop
      vertex 18.906 -1.70201 20.0411
      vertex 5.44413 -9.42951 29.4863
      vertex 20.9617 -5.2625 15.7266
    endloop
  endfacet
  facet normal -0.951056 0.309017 0
    outer loop
      vertex -13.6 2.89077 -2.48528
      vertex -12.7018 5.6552 2.48528
      vertex -12.7018 5.6552 -2.48528
    endloop
  endfacet
  facet normal -0.951056 0.309017 0
    outer loop
      vertex -12.7018 5.6552 2.48528
      vertex -13.6 2.89077 -2.48528
      vertex -13.6 2.89077 2.48528
    endloop
  endfacet
  facet normal -0.755366 0.245434 -0.607606
    outer loop
      vertex -10.2319 4.55554 -6
      vertex -13.6 2.89077 -2.48528
      vertex -12.7018 5.6552 -2.48528
    endloop
  endfacet
  facet normal 0 -1 0
    outer loop
      vertex -1.45335 -13.8277 -2.48528
      vertex 1.45335 -13.8277 2.48528
      vertex -1.45335 -13.8277 2.48528
    endloop
  endfacet
  facet normal 0 -1 -0
    outer loop
      vertex 1.45335 -13.8277 2.48528
      vertex -1.45335 -13.8277 -2.48528
      vertex 1.45335 -13.8277 -2.48528
    endloop
  endfacet
  facet normal -0.405035 -0.909724 0.0913653
    outer loop
      vertex -5.775 -10.0026 28
      vertex -6.95192 -12.0411 2.48528
      vertex -4.29652 -13.2233 2.48528
    endloop
  endfacet
  facet normal -0.590234 -0.531449 -0.607606
    outer loop
      vertex -9.30349 -10.3326 -2.48528
      vertex -11.2484 -8.17247 -2.48528
      vertex -9.06116 -6.58332 -6
    endloop
  endfacet
  facet normal -0.856455 -0.494474 0.14826
    outer loop
      vertex -11.55 0 28
      vertex -12.7018 -5.6552 2.48528
      vertex -11.2484 -8.17247 2.48528
    endloop
  endfacet
  facet normal -0.945207 -0.307117 0.11074
    outer loop
      vertex -11.55 0 28
      vertex -13.6 -2.89077 2.48528
      vertex -12.7018 -5.6552 2.48528
    endloop
  endfacet
  facet normal -0.789888 -0.0830207 -0.607606
    outer loop
      vertex -10.9555 -2.32866 -6
      vertex -13.6 -2.89077 -2.48528
      vertex -11.2002 0 -6
    endloop
  endfacet
  facet normal -0.994522 0.104528 0
    outer loop
      vertex -13.9038 0 -2.48528
      vertex -13.6 2.89077 2.48528
      vertex -13.6 2.89077 -2.48528
    endloop
  endfacet
  facet normal -0.994522 0.104528 0
    outer loop
      vertex -13.6 2.89077 2.48528
      vertex -13.9038 0 -2.48528
      vertex -13.9038 0 2.48528
    endloop
  endfacet
  facet normal -0.1558 0.0899514 0.983684
    outer loop
      vertex -5.08402 8.80578 29.9021
      vertex -10.168 0 29.9021
      vertex -9.55 0 30
    endloop
  endfacet
  facet normal -0.1558 -0.0899514 0.983684
    outer loop
      vertex -9.55 0 30
      vertex -10.168 0 29.9021
      vertex -5.08402 -8.80578 29.9021
    endloop
  endfacet
  facet normal 0 -0.5547 0.83205
    outer loop
      vertex -5.08402 -8.80578 29.9021
      vertex 5.44413 -9.42951 29.4863
      vertex 5.08402 -8.80578 29.9021
    endloop
  endfacet
  facet normal 0 -0.5547 0.83205
    outer loop
      vertex 5.44413 -9.42951 29.4863
      vertex -5.08402 -8.80578 29.9021
      vertex -5.44413 -9.42951 29.4863
    endloop
  endfacet
  facet normal 0 -0.179903 0.983684
    outer loop
      vertex -4.775 -8.27054 30
      vertex 5.08402 -8.80578 29.9021
      vertex 4.775 -8.27054 30
    endloop
  endfacet
  facet normal 0 -0.179903 0.983684
    outer loop
      vertex 5.08402 -8.80578 29.9021
      vertex -4.775 -8.27054 30
      vertex -5.08402 -8.80578 29.9021
    endloop
  endfacet
  facet normal 0.590235 0.531449 -0.607606
    outer loop
      vertex 30.8251 4.23218 -6
      vertex 29.8179 5.3508 -6
      vertex 31.627 7.35999 -2.48528
    endloop
  endfacet
  facet normal 0.158596 0.980017 0.120058
    outer loop
      vertex 26.0352 9.84959 2.48528
      vertex 1.45335 13.8277 2.48528
      vertex 5.775 10.0026 28
    endloop
  endfacet
  facet normal 0.587785 0.809017 -0
    outer loop
      vertex 31.627 7.35999 -2.48528
      vertex 29.9519 8.57698 2.48528
      vertex 31.627 7.35999 2.48528
    endloop
  endfacet
  facet normal 0.587785 0.809017 0
    outer loop
      vertex 29.9519 8.57698 2.48528
      vertex 31.627 7.35999 -2.48528
      vertex 29.9519 8.57698 -2.48528
    endloop
  endfacet
  facet normal 0.624526 0.538483 0.565688
    outer loop
      vertex 5.68855 9.85285 28.8135
      vertex 5.44413 9.42951 29.4863
      vertex 33.0124 5.82133 2.48528
    endloop
  endfacet
  facet normal 0.71527 -0.232407 0.659072
    outer loop
      vertex 18.2231 -0.519048 21.343
      vertex 10.8883 0 29.4863
      vertex 18.5495 -1.08445 20.7894
    endloop
  endfacet
  facet normal 0.755354 -0.245449 0.607614
    outer loop
      vertex 33.9338 -3.8846 2.68475
      vertex 33.8911 -3.95858 2.70797
      vertex 34.0476 -4.02826 2.48528
    endloop
  endfacet
  facet normal 0.205325 -0.965979 0.157248
    outer loop
      vertex 28.0605 -9.41912 2.48528
      vertex 5.775 -10.0026 28
      vertex 26.0352 -9.84959 2.48528
    endloop
  endfacet
  facet normal 0.323046 -0.725573 -0.607606
    outer loop
      vertex 28.0605 -9.41912 -2.48528
      vertex 27.225 -6.84781 -6
      vertex 28.6001 -6.23557 -6
    endloop
  endfacet
  facet normal 0.755366 -0.245433 -0.607606
    outer loop
      vertex 34.0476 -4.02826 -2.48528
      vertex 32.0429 -1.49701 -6
      vertex 34.6874 -2.05912 -2.48528
    endloop
  endfacet
  facet normal 0.994522 0.104529 0
    outer loop
      vertex 34.9038 0 2.48528
      vertex 34.6874 2.05912 -2.48528
      vertex 34.6874 2.05912 2.48528
    endloop
  endfacet
  facet normal 0.994522 0.104529 0
    outer loop
      vertex 34.6874 2.05912 -2.48528
      vertex 34.9038 0 2.48528
      vertex 34.9038 0 -2.48528
    endloop
  endfacet
  facet normal 0.525209 -0.722887 0.448987
    outer loop
      vertex 31.627 -7.35999 2.48528
      vertex 5.68855 -9.85285 28.8135
      vertex 29.9519 -8.57698 2.48528
    endloop
  endfacet
  facet normal 0.655369 -0.446053 0.60953
    outer loop
      vertex 33.0124 -5.82133 2.48528
      vertex 27.0383 -5.2625 9.31758
      vertex 25.7936 -5.2625 10.6559
    endloop
  endfacet
  facet normal 0.655236 -0.446373 0.60944
    outer loop
      vertex 27.0383 -5.2625 9.31758
      vertex 33.0124 -5.82133 2.48528
      vertex 27.0617 -5.2625 9.29243
    endloop
  endfacet
  facet normal 0.655369 -0.446055 0.60953
    outer loop
      vertex 27.0617 -5.2625 9.29243
      vertex 33.0124 -5.82133 2.48528
      vertex 32.2432 -5.2625 3.72125
    endloop
  endfacet
  facet normal 0.655369 -0.446055 0.60953
    outer loop
      vertex 33.0124 -5.82133 2.48528
      vertex 25.7936 -5.2625 10.6559
      vertex 5.44413 -9.42951 29.4863
    endloop
  endfacet
  facet normal 0.655362 -0.446027 0.609557
    outer loop
      vertex 27.05 -5.24224 9.31983
      vertex 27.0383 -5.2625 9.31758
      vertex 27.0617 -5.2625 9.29243
    endloop
  endfacet
  facet normal 0.738322 0.077599 0.669969
    outer loop
      vertex 18.2231 0.519048 21.343
      vertex 10.8883 0 29.4863
      vertex 17.9234 0 21.7334
    endloop
  endfacet
  facet normal -0.466842 -0.642553 -0.607606
    outer loop
      vertex -6.95192 -12.0411 -2.48528
      vertex -9.30349 -10.3326 -2.48528
      vertex -5.60011 -9.69967 -6
    endloop
  endfacet
  facet normal -0.323046 -0.725573 -0.607606
    outer loop
      vertex -4.29652 -13.2233 -2.48528
      vertex -6.95192 -12.0411 -2.48528
      vertex -5.60011 -9.69967 -6
    endloop
  endfacet
  facet normal -0.743145 -0.66913 0
    outer loop
      vertex -9.30349 -10.3326 -2.48528
      vertex -11.2484 -8.17247 2.48528
      vertex -11.2484 -8.17247 -2.48528
    endloop
  endfacet
  facet normal -0.743145 -0.66913 0
    outer loop
      vertex -11.2484 -8.17247 2.48528
      vertex -9.30349 -10.3326 -2.48528
      vertex -9.30349 -10.3326 2.48528
    endloop
  endfacet
  facet normal -0.590234 -0.531449 -0.607606
    outer loop
      vertex -7.49441 -8.32338 -6
      vertex -9.30349 -10.3326 -2.48528
      vertex -9.06116 -6.58332 -6
    endloop
  endfacet
  facet normal -0.466842 0.642553 -0.607606
    outer loop
      vertex -5.60011 9.69967 -6
      vertex -9.30349 10.3326 -2.48528
      vertex -6.95192 12.0411 -2.48528
    endloop
  endfacet
  facet normal -0.687831 0.397119 -0.607606
    outer loop
      vertex -10.2319 4.55554 -6
      vertex -11.2484 8.17247 -2.48528
      vertex -9.06116 6.58332 -6
    endloop
  endfacet
  facet normal -0.323046 0.725573 -0.607606
    outer loop
      vertex -3.46106 10.652 -6
      vertex -5.60011 9.69967 -6
      vertex -4.29652 13.2233 -2.48528
    endloop
  endfacet
  facet normal -0.323046 0.725573 -0.607606
    outer loop
      vertex -5.60011 9.69967 -6
      vertex -6.95192 12.0411 -2.48528
      vertex -4.29652 13.2233 -2.48528
    endloop
  endfacet
  facet normal -0.856455 0.494474 0.14826
    outer loop
      vertex -11.2484 8.17247 2.48528
      vertex -12.7018 5.6552 2.48528
      vertex -11.55 0 28
    endloop
  endfacet
  facet normal -0.405035 0.909724 0.0913653
    outer loop
      vertex -4.29652 13.2233 2.48528
      vertex -6.95192 12.0411 2.48528
      vertex -5.775 10.0026 28
    endloop
  endfacet
  facet normal -0.206633 0.972131 0.11074
    outer loop
      vertex -4.29652 13.2233 2.48528
      vertex -5.775 10.0026 28
      vertex -1.45335 13.8277 2.48528
    endloop
  endfacet
  facet normal 0 0.988948 0.14826
    outer loop
      vertex 1.45335 13.8277 2.48528
      vertex -5.775 10.0026 28
      vertex 5.775 10.0026 28
    endloop
  endfacet
  facet normal 0 0.988948 0.14826
    outer loop
      vertex -5.775 10.0026 28
      vertex 1.45335 13.8277 2.48528
      vertex -1.45335 13.8277 2.48528
    endloop
  endfacet
  facet normal 0.126696 0.782896 -0.609116
    outer loop
      vertex 25.7526 7.16077 -6
      vertex 1.45335 13.8277 -2.48528
      vertex 26.0352 9.84959 -2.48528
    endloop
  endfacet
  facet normal 0.126696 0.782896 -0.609116
    outer loop
      vertex 1.45335 13.8277 -2.48528
      vertex 25.7526 7.16077 -6
      vertex 1.17074 11.1389 -6
    endloop
  endfacet
  facet normal 0.466842 0.642552 -0.607606
    outer loop
      vertex 29.8179 5.3508 -6
      vertex 28.6001 6.23557 -6
      vertex 31.627 7.35999 -2.48528
    endloop
  endfacet
  facet normal 0.165131 0.776883 -0.607606
    outer loop
      vertex 27.225 6.84781 -6
      vertex 25.7526 7.16077 -6
      vertex 26.0352 9.84959 -2.48528
    endloop
  endfacet
  facet normal 0.466842 0.642553 -0.607606
    outer loop
      vertex 31.627 7.35999 -2.48528
      vertex 28.6001 6.23557 -6
      vertex 29.9519 8.57698 -2.48528
    endloop
  endfacet
  facet normal -0.165131 -0.776883 -0.607606
    outer loop
      vertex -1.45335 -13.8277 -2.48528
      vertex -3.46106 -10.652 -6
      vertex -1.17074 -11.1389 -6
    endloop
  endfacet
  facet normal -0.789888 -0.0830205 -0.607606
    outer loop
      vertex -13.6 -2.89077 -2.48528
      vertex -13.9038 0 -2.48528
      vertex -11.2002 0 -6
    endloop
  endfacet
  facet normal -0.789888 0.0830205 -0.607606
    outer loop
      vertex -11.2002 0 -6
      vertex -13.9038 0 -2.48528
      vertex -13.6 2.89077 -2.48528
    endloop
  endfacet
  facet normal 0.255123 0.945742 0.201206
    outer loop
      vertex 5.775 10.0026 28
      vertex 5.68855 9.85285 28.8135
      vertex 28.0605 9.41912 2.48528
    endloop
  endfacet
  facet normal 0.159752 0.987157 -0
    outer loop
      vertex 26.0352 9.84959 -2.48528
      vertex 1.45335 13.8277 2.48528
      vertex 26.0352 9.84959 2.48528
    endloop
  endfacet
  facet normal 0.159752 0.987157 0
    outer loop
      vertex 1.45335 13.8277 2.48528
      vertex 26.0352 9.84959 -2.48528
      vertex 1.45335 13.8277 -2.48528
    endloop
  endfacet
  facet normal 0.755366 0.245429 0.607607
    outer loop
      vertex 34.2737 3.29587 2.5
      vertex 34.0476 4.02826 2.48528
      vertex 33.9338 3.8846 2.68475
    endloop
  endfacet
  facet normal 0.755287 0.245407 0.607715
    outer loop
      vertex 34.2737 3.29587 2.5
      vertex 34.6874 2.05912 2.48528
      vertex 34.0476 4.02826 2.48528
    endloop
  endfacet
  facet normal 0.755384 0.245441 0.60758
    outer loop
      vertex 34.6874 2.05912 2.48528
      vertex 34.2737 3.29587 2.5
      vertex 34.6763 2.05677 2.5
    endloop
  endfacet
  facet normal 0.159752 -0.987157 0
    outer loop
      vertex 1.45335 -13.8277 -2.48528
      vertex 26.0352 -9.84959 2.48528
      vertex 1.45335 -13.8277 2.48528
    endloop
  endfacet
  facet normal 0.159752 -0.987157 0
    outer loop
      vertex 26.0352 -9.84959 2.48528
      vertex 1.45335 -13.8277 -2.48528
      vertex 26.0352 -9.84959 -2.48528
    endloop
  endfacet
  facet normal 0.207912 -0.978148 0
    outer loop
      vertex 26.0352 -9.84959 -2.48528
      vertex 28.0605 -9.41912 2.48528
      vertex 26.0352 -9.84959 2.48528
    endloop
  endfacet
  facet normal 0.207912 -0.978148 0
    outer loop
      vertex 28.0605 -9.41912 2.48528
      vertex 26.0352 -9.84959 -2.48528
      vertex 28.0605 -9.41912 -2.48528
    endloop
  endfacet
  facet normal 0.466842 -0.642552 -0.607606
    outer loop
      vertex 31.627 -7.35999 -2.48528
      vertex 28.6001 -6.23557 -6
      vertex 29.8179 -5.3508 -6
    endloop
  endfacet
  facet normal 0.951057 0.309017 0
    outer loop
      vertex 34.6874 2.05912 2.48528
      vertex 34.0476 4.02826 -2.48528
      vertex 34.0476 4.02826 2.48528
    endloop
  endfacet
  facet normal 0.951057 0.309017 0
    outer loop
      vertex 34.0476 4.02826 -2.48528
      vertex 34.6874 2.05912 2.48528
      vertex 34.6874 2.05912 -2.48528
    endloop
  endfacet
  facet normal 0.68783 0.39712 -0.607606
    outer loop
      vertex 34.0476 4.02826 -2.48528
      vertex 31.5777 2.92859 -6
      vertex 33.0124 5.82133 -2.48528
    endloop
  endfacet
  facet normal 0.994522 -0.104529 0
    outer loop
      vertex 34.6874 -2.05912 2.48528
      vertex 34.9038 0 -2.48528
      vertex 34.9038 0 2.48528
    endloop
  endfacet
  facet normal 0.994522 -0.104529 0
    outer loop
      vertex 34.9038 0 -2.48528
      vertex 34.6874 -2.05912 2.48528
      vertex 34.6874 -2.05912 -2.48528
    endloop
  endfacet
  facet normal 0.667949 0.38564 0.636495
    outer loop
      vertex 18.906 1.70201 20.0411
      vertex 10.8883 0 29.4863
      vertex 18.5495 1.08445 20.7894
    endloop
  endfacet
  facet normal 0.68783 0.39712 0.607606
    outer loop
      vertex 33.0124 5.82133 2.48528
      vertex 32.2432 5.2625 3.72125
      vertex 32.7352 5.2625 3.16427
    endloop
  endfacet
  facet normal -0.743145 0.66913 0
    outer loop
      vertex -11.2484 8.17247 -2.48528
      vertex -9.30349 10.3326 2.48528
      vertex -9.30349 10.3326 -2.48528
    endloop
  endfacet
  facet normal -0.743145 0.66913 0
    outer loop
      vertex -9.30349 10.3326 2.48528
      vertex -11.2484 8.17247 -2.48528
      vertex -11.2484 8.17247 2.48528
    endloop
  endfacet
  facet normal -0.590234 0.531449 -0.607606
    outer loop
      vertex -9.06116 6.58332 -6
      vertex -11.2484 8.17247 -2.48528
      vertex -9.30349 10.3326 -2.48528
    endloop
  endfacet
  facet normal -0.466842 0.642552 -0.607606
    outer loop
      vertex -7.49441 8.32338 -6
      vertex -9.30349 10.3326 -2.48528
      vertex -5.60011 9.69967 -6
    endloop
  endfacet
  facet normal -0.207912 0.978148 0
    outer loop
      vertex -1.45335 13.8277 -2.48528
      vertex -4.29652 13.2233 2.48528
      vertex -1.45335 13.8277 2.48528
    endloop
  endfacet
  facet normal -0.207912 0.978148 0
    outer loop
      vertex -4.29652 13.2233 2.48528
      vertex -1.45335 13.8277 -2.48528
      vertex -4.29652 13.2233 -2.48528
    endloop
  endfacet
  facet normal -0.165131 0.776883 -0.607606
    outer loop
      vertex -3.46106 10.652 -6
      vertex -4.29652 13.2233 -2.48528
      vertex -1.45335 13.8277 -2.48528
    endloop
  endfacet
  facet normal 0.207912 0.978148 -0
    outer loop
      vertex 28.0605 9.41912 -2.48528
      vertex 26.0352 9.84959 2.48528
      vertex 28.0605 9.41912 2.48528
    endloop
  endfacet
  facet normal 0.207912 0.978148 0
    outer loop
      vertex 26.0352 9.84959 2.48528
      vertex 28.0605 9.41912 -2.48528
      vertex 26.0352 9.84959 -2.48528
    endloop
  endfacet
  facet normal 0.165131 0.776883 -0.607606
    outer loop
      vertex 27.225 6.84781 -6
      vertex 26.0352 9.84959 -2.48528
      vertex 28.0605 9.41912 -2.48528
    endloop
  endfacet
  facet normal 0.386183 0.867382 0.313863
    outer loop
      vertex 28.0605 9.41912 2.48528
      vertex 5.68855 9.85285 28.8135
      vertex 29.9519 8.57698 2.48528
    endloop
  endfacet
  facet normal 0.743145 0.66913 0
    outer loop
      vertex 33.0124 5.82133 2.48528
      vertex 31.627 7.35999 -2.48528
      vertex 31.627 7.35999 2.48528
    endloop
  endfacet
  facet normal 0.743145 0.66913 0
    outer loop
      vertex 31.627 7.35999 -2.48528
      vertex 33.0124 5.82133 2.48528
      vertex 33.0124 5.82133 -2.48528
    endloop
  endfacet
  facet normal 0.590235 0.531449 -0.607606
    outer loop
      vertex 33.0124 5.82133 -2.48528
      vertex 30.8251 4.23218 -6
      vertex 31.627 7.35999 -2.48528
    endloop
  endfacet
  facet normal 0.323046 0.725573 -0.607606
    outer loop
      vertex 28.6001 6.23557 -6
      vertex 27.225 6.84781 -6
      vertex 28.0605 9.41912 -2.48528
    endloop
  endfacet
  facet normal -0.755366 -0.245434 -0.607606
    outer loop
      vertex -12.7018 -5.6552 -2.48528
      vertex -13.6 -2.89077 -2.48528
      vertex -10.2319 -4.55554 -6
    endloop
  endfacet
  facet normal -0.951056 -0.309017 0
    outer loop
      vertex -12.7018 -5.6552 -2.48528
      vertex -13.6 -2.89077 2.48528
      vertex -13.6 -2.89077 -2.48528
    endloop
  endfacet
  facet normal -0.951056 -0.309017 0
    outer loop
      vertex -13.6 -2.89077 2.48528
      vertex -12.7018 -5.6552 -2.48528
      vertex -12.7018 -5.6552 2.48528
    endloop
  endfacet
  facet normal -0.789888 0.0830207 -0.607606
    outer loop
      vertex -11.2002 0 -6
      vertex -13.6 2.89077 -2.48528
      vertex -10.9555 2.32866 -6
    endloop
  endfacet
  facet normal -0.755366 0.245433 -0.607606
    outer loop
      vertex -10.9555 2.32866 -6
      vertex -13.6 2.89077 -2.48528
      vertex -10.2319 4.55554 -6
    endloop
  endfacet
  facet normal 0.789887 0.0831494 0.607589
    outer loop
      vertex 34.9038 0 2.48528
      vertex 34.8919 0.0062692 2.5
      vertex 34.8925 0 2.5
    endloop
  endfacet
  facet normal 0.789909 0.0830223 0.607578
    outer loop
      vertex 34.8919 0.0062692 2.5
      vertex 34.6874 2.05912 2.48528
      vertex 34.6763 2.05677 2.5
    endloop
  endfacet
  facet normal 0.789869 0.0830187 0.607631
    outer loop
      vertex 34.6874 2.05912 2.48528
      vertex 34.8919 0.0062692 2.5
      vertex 34.9038 0 2.48528
    endloop
  endfacet
  facet normal 0.165131 -0.776883 -0.607606
    outer loop
      vertex 26.0352 -9.84959 -2.48528
      vertex 25.7526 -7.16077 -6
      vertex 27.225 -6.84781 -6
    endloop
  endfacet
  facet normal 0.165131 -0.776883 -0.607606
    outer loop
      vertex 28.0605 -9.41912 -2.48528
      vertex 26.0352 -9.84959 -2.48528
      vertex 27.225 -6.84781 -6
    endloop
  endfacet
  facet normal 0.587785 -0.809017 0
    outer loop
      vertex 29.9519 -8.57698 -2.48528
      vertex 31.627 -7.35999 2.48528
      vertex 29.9519 -8.57698 2.48528
    endloop
  endfacet
  facet normal 0.587785 -0.809017 0
    outer loop
      vertex 31.627 -7.35999 2.48528
      vertex 29.9519 -8.57698 -2.48528
      vertex 31.627 -7.35999 -2.48528
    endloop
  endfacet
  facet normal 0.866025 -0.500001 0
    outer loop
      vertex 33.0124 -5.82133 2.48528
      vertex 34.0476 -4.02826 -2.48528
      vertex 34.0476 -4.02826 2.48528
    endloop
  endfacet
  facet normal 0.866025 -0.500001 0
    outer loop
      vertex 34.0476 -4.02826 -2.48528
      vertex 33.0124 -5.82133 2.48528
      vertex 33.0124 -5.82133 -2.48528
    endloop
  endfacet
  facet normal 0.590235 -0.531449 -0.607606
    outer loop
      vertex 31.627 -7.35999 -2.48528
      vertex 29.8179 -5.3508 -6
      vertex 30.8251 -4.23218 -6
    endloop
  endfacet
  facet normal 0.755366 0.245433 -0.607606
    outer loop
      vertex 34.6874 2.05912 -2.48528
      vertex 32.0429 1.49701 -6
      vertex 34.0476 4.02826 -2.48528
    endloop
  endfacet
  facet normal 0.789888 0.0830206 -0.607606
    outer loop
      vertex 34.9038 0 -2.48528
      vertex 32.0429 1.49701 -6
      vertex 34.6874 2.05912 -2.48528
    endloop
  endfacet
  facet normal 0.789888 -0.0830206 -0.607606
    outer loop
      vertex 34.6874 -2.05912 -2.48528
      vertex 32.0429 -1.49701 -6
      vertex 34.9038 0 -2.48528
    endloop
  endfacet
  facet normal 0.655362 0.446027 0.609557
    outer loop
      vertex 27.0383 5.2625 9.31758
      vertex 27.05 5.24224 9.31983
      vertex 27.0617 5.2625 9.29243
    endloop
  endfacet
  facet normal 0.655369 0.446055 0.60953
    outer loop
      vertex 25.7936 5.2625 10.6559
      vertex 33.0124 5.82133 2.48528
      vertex 5.44413 9.42951 29.4863
    endloop
  endfacet
  facet normal 0.655369 0.446053 0.60953
    outer loop
      vertex 27.0383 5.2625 9.31758
      vertex 33.0124 5.82133 2.48528
      vertex 25.7936 5.2625 10.6559
    endloop
  endfacet
  facet normal 0.655236 0.446373 0.60944
    outer loop
      vertex 27.0617 5.2625 9.29243
      vertex 33.0124 5.82133 2.48528
      vertex 27.0383 5.2625 9.31758
    endloop
  endfacet
  facet normal 0.655369 0.446055 0.60953
    outer loop
      vertex 33.0124 5.82133 2.48528
      vertex 27.0617 5.2625 9.29243
      vertex 32.2432 5.2625 3.72125
    endloop
  endfacet
  facet normal 0.667949 0.385641 0.636494
    outer loop
      vertex 5.44413 9.42951 29.4863
      vertex 18.906 1.70201 20.0411
      vertex 20.9617 5.2625 15.7266
    endloop
  endfacet
  facet normal 0.667949 0.385641 0.636494
    outer loop
      vertex 18.906 1.70201 20.0411
      vertex 5.44413 9.42951 29.4863
      vertex 10.8883 0 29.4863
    endloop
  endfacet
  facet normal 0.667949 0.38564 0.636495
    outer loop
      vertex 5.44413 9.42951 29.4863
      vertex 20.9617 5.2625 15.7266
      vertex 25.7936 5.2625 10.6559
    endloop
  endfacet
  facet normal -0.590234 0.531449 -0.607606
    outer loop
      vertex -9.06116 6.58332 -6
      vertex -9.30349 10.3326 -2.48528
      vertex -7.49441 8.32338 -6
    endloop
  endfacet
  facet normal 0 1 -0
    outer loop
      vertex 1.45335 13.8277 -2.48528
      vertex -1.45335 13.8277 2.48528
      vertex 1.45335 13.8277 2.48528
    endloop
  endfacet
  facet normal 0 1 0
    outer loop
      vertex -1.45335 13.8277 2.48528
      vertex 1.45335 13.8277 -2.48528
      vertex -1.45335 13.8277 -2.48528
    endloop
  endfacet
  facet normal 0 0.794239 -0.607606
    outer loop
      vertex 1.17074 11.1389 -6
      vertex -1.45335 13.8277 -2.48528
      vertex 1.45335 13.8277 -2.48528
    endloop
  endfacet
  facet normal 0 0.794239 -0.607606
    outer loop
      vertex -1.45335 13.8277 -2.48528
      vertex 1.17074 11.1389 -6
      vertex -1.17074 11.1389 -6
    endloop
  endfacet
  facet normal 0.323046 0.725573 -0.607606
    outer loop
      vertex 28.6001 6.23557 -6
      vertex 28.0605 9.41912 -2.48528
      vertex 29.9519 8.57698 -2.48528
    endloop
  endfacet
  facet normal 0.406736 0.913546 -0
    outer loop
      vertex 29.9519 8.57698 -2.48528
      vertex 28.0605 9.41912 2.48528
      vertex 29.9519 8.57698 2.48528
    endloop
  endfacet
  facet normal 0.406736 0.913546 0
    outer loop
      vertex 28.0605 9.41912 2.48528
      vertex 29.9519 8.57698 -2.48528
      vertex 28.0605 9.41912 -2.48528
    endloop
  endfacet
  facet normal 0.789887 -0.0831494 0.607589
    outer loop
      vertex 34.8925 0 2.5
      vertex 34.8919 -0.0062692 2.5
      vertex 34.9038 0 2.48528
    endloop
  endfacet
  facet normal 0.738322 -0.077599 0.669969
    outer loop
      vertex 17.9234 0 21.7334
      vertex 10.8883 0 29.4863
      vertex 18.2231 -0.519048 21.343
    endloop
  endfacet
  facet normal 0.755354 0.245449 0.607614
    outer loop
      vertex 34.0476 4.02826 2.48528
      vertex 33.8911 3.95858 2.70797
      vertex 33.9338 3.8846 2.68475
    endloop
  endfacet
  facet normal 0.71527 0.232407 0.659072
    outer loop
      vertex 18.5495 1.08445 20.7894
      vertex 10.8883 0 29.4863
      vertex 18.2231 0.519048 21.343
    endloop
  endfacet
  facet normal 0.466842 -0.642553 -0.607606
    outer loop
      vertex 29.9519 -8.57698 -2.48528
      vertex 28.6001 -6.23557 -6
      vertex 31.627 -7.35999 -2.48528
    endloop
  endfacet
  facet normal 0.323046 -0.725573 -0.607606
    outer loop
      vertex 29.9519 -8.57698 -2.48528
      vertex 28.0605 -9.41912 -2.48528
      vertex 28.6001 -6.23557 -6
    endloop
  endfacet
  facet normal 0.755366 0.245433 -0.607606
    outer loop
      vertex 32.0429 1.49701 -6
      vertex 31.5777 2.92859 -6
      vertex 34.0476 4.02826 -2.48528
    endloop
  endfacet
  facet normal 0.755366 -0.245433 -0.607606
    outer loop
      vertex 34.0476 -4.02826 -2.48528
      vertex 31.5777 -2.92859 -6
      vertex 32.0429 -1.49701 -6
    endloop
  endfacet
  facet normal 0.68783 -0.39712 -0.607606
    outer loop
      vertex 33.0124 -5.82133 -2.48528
      vertex 31.5777 -2.92859 -6
      vertex 34.0476 -4.02826 -2.48528
    endloop
  endfacet
  facet normal 0.789909 -0.0830223 0.607578
    outer loop
      vertex 34.6874 -2.05912 2.48528
      vertex 34.8919 -0.0062692 2.5
      vertex 34.6763 -2.05677 2.5
    endloop
  endfacet
  facet normal 0.789869 -0.0830187 0.607631
    outer loop
      vertex 34.8919 -0.0062692 2.5
      vertex 34.6874 -2.05912 2.48528
      vertex 34.9038 0 2.48528
    endloop
  endfacet
  facet normal 0.755384 -0.245441 0.60758
    outer loop
      vertex 34.2737 -3.29587 2.5
      vertex 34.6874 -2.05912 2.48528
      vertex 34.6763 -2.05677 2.5
    endloop
  endfacet
  facet normal 0.755287 -0.245407 0.607715
    outer loop
      vertex 34.2737 -3.29587 2.5
      vertex 34.0476 -4.02826 2.48528
      vertex 34.6874 -2.05912 2.48528
    endloop
  endfacet
  facet normal 0.755366 -0.245429 0.607607
    outer loop
      vertex 34.0476 -4.02826 2.48528
      vertex 34.2737 -3.29587 2.5
      vertex 33.9338 -3.8846 2.68475
    endloop
  endfacet
  facet normal 0.789888 0.0830221 -0.607606
    outer loop
      vertex 32.2002 0 -6
      vertex 32.0429 1.49701 -6
      vertex 34.9038 0 -2.48528
    endloop
  endfacet
  facet normal 0.789888 -0.0830221 -0.607606
    outer loop
      vertex 34.9038 0 -2.48528
      vertex 32.0429 -1.49701 -6
      vertex 32.2002 0 -6
    endloop
  endfacet
  facet normal 0.687831 -0.39712 -0.607606
    outer loop
      vertex 33.0124 -5.82133 -2.48528
      vertex 30.8251 -4.23218 -6
      vertex 31.5777 -2.92859 -6
    endloop
  endfacet
  facet normal 0.590235 -0.531449 -0.607606
    outer loop
      vertex 31.627 -7.35999 -2.48528
      vertex 30.8251 -4.23218 -6
      vertex 33.0124 -5.82133 -2.48528
    endloop
  endfacet
  facet normal -0.866025 -0.5 0
    outer loop
      vertex 7.73649 0 -5.7
      vertex 3.86825 6.7 0
      vertex 3.86825 6.7 -5.7
    endloop
  endfacet
  facet normal -0.866025 -0.5 0
    outer loop
      vertex 3.86825 6.7 0
      vertex 7.73649 0 -5.7
      vertex 7.73649 0 0
    endloop
  endfacet
  facet normal 0.866025 -0.5 0
    outer loop
      vertex -7.73649 0 0
      vertex -3.86825 6.7 -5.7
      vertex -3.86825 6.7 0
    endloop
  endfacet
  facet normal 0.866025 -0.5 0
    outer loop
      vertex -3.86825 6.7 -5.7
      vertex -7.73649 0 0
      vertex -7.73649 0 -5.7
    endloop
  endfacet
  facet normal 0 -1 0
    outer loop
      vertex -3.86825 6.7 -5.7
      vertex 3.86825 6.7 0
      vertex -3.86825 6.7 0
    endloop
  endfacet
  facet normal 0 -1 -0
    outer loop
      vertex 3.86825 6.7 0
      vertex -3.86825 6.7 -5.7
      vertex 3.86825 6.7 -5.7
    endloop
  endfacet
  facet normal 0.866025 0.5 0
    outer loop
      vertex -3.86825 -6.7 0
      vertex -7.73649 0 -5.7
      vertex -7.73649 0 0
    endloop
  endfacet
  facet normal 0.866025 0.5 0
    outer loop
      vertex -7.73649 0 -5.7
      vertex -3.86825 -6.7 0
      vertex -3.86825 -6.7 -5.7
    endloop
  endfacet
  facet normal -0.866025 0.5 0
    outer loop
      vertex 3.86825 -6.7 -5.7
      vertex 7.73649 0 0
      vertex 7.73649 0 -5.7
    endloop
  endfacet
  facet normal -0.866025 0.5 0
    outer loop
      vertex 7.73649 0 0
      vertex 3.86825 -6.7 -5.7
      vertex 3.86825 -6.7 0
    endloop
  endfacet
  facet normal 0 1 -0
    outer loop
      vertex 3.86825 -6.7 -5.7
      vertex -3.86825 -6.7 0
      vertex 3.86825 -6.7 0
    endloop
  endfacet
  facet normal 0 1 0
    outer loop
      vertex -3.86825 -6.7 0
      vertex 3.86825 -6.7 -5.7
      vertex -3.86825 -6.7 -5.7
    endloop
  endfacet
  facet normal -0.866025 -0.5 0
    outer loop
      vertex 8.02517 0 -6
      vertex 4.01258 6.95 -5.7
      vertex 4.01258 6.95 -6
    endloop
  endfacet
  facet normal -0.866025 -0.5 0
    outer loop
      vertex 4.01258 6.95 -5.7
      vertex 8.02517 0 -6
      vertex 8.02517 0 -5.7
    endloop
  endfacet
  facet normal 0.866025 -0.5 0
    outer loop
      vertex -8.02517 0 -5.7
      vertex -4.01258 6.95 -6
      vertex -4.01258 6.95 -5.7
    endloop
  endfacet
  facet normal 0.866025 -0.5 0
    outer loop
      vertex -4.01258 6.95 -6
      vertex -8.02517 0 -5.7
      vertex -8.02517 0 -6
    endloop
  endfacet
  facet normal 0 -1 0
    outer loop
      vertex -4.01258 6.95 -6
      vertex 4.01258 6.95 -5.7
      vertex -4.01258 6.95 -5.7
    endloop
  endfacet
  facet normal 0 -1 -0
    outer loop
      vertex 4.01258 6.95 -5.7
      vertex -4.01258 6.95 -6
      vertex 4.01258 6.95 -6
    endloop
  endfacet
  facet normal 0.866025 0.5 0
    outer loop
      vertex -4.01258 -6.95 -5.7
      vertex -8.02517 0 -6
      vertex -8.02517 0 -5.7
    endloop
  endfacet
  facet normal 0.866025 0.5 0
    outer loop
      vertex -8.02517 0 -6
      vertex -4.01258 -6.95 -5.7
      vertex -4.01258 -6.95 -6
    endloop
  endfacet
  facet normal 0 0 -1
    outer loop
      vertex 4.01258 -6.95 -5.7
      vertex 7.73649 0 -5.7
      vertex 8.02517 0 -5.7
    endloop
  endfacet
  facet normal 0 0 -1
    outer loop
      vertex 4.01258 -6.95 -5.7
      vertex 3.86825 -6.7 -5.7
      vertex 7.73649 0 -5.7
    endloop
  endfacet
  facet normal 0 0 -1
    outer loop
      vertex 4.01258 -6.95 -5.7
      vertex -3.86825 -6.7 -5.7
      vertex 3.86825 -6.7 -5.7
    endloop
  endfacet
  facet normal 0 0 -1
    outer loop
      vertex -4.01258 -6.95 -5.7
      vertex -3.86825 -6.7 -5.7
      vertex 4.01258 -6.95 -5.7
    endloop
  endfacet
  facet normal 0 0 -1
    outer loop
      vertex -4.01258 -6.95 -5.7
      vertex -7.73649 0 -5.7
      vertex -3.86825 -6.7 -5.7
    endloop
  endfacet
  facet normal -0 -0 -1
    outer loop
      vertex -7.73649 0 -5.7
      vertex -4.01258 -6.95 -5.7
      vertex -8.02517 0 -5.7
    endloop
  endfacet
  facet normal 0 0 -1
    outer loop
      vertex 7.73649 0 -5.7
      vertex 4.01258 6.95 -5.7
      vertex 8.02517 0 -5.7
    endloop
  endfacet
  facet normal 0 0 -1
    outer loop
      vertex 3.86825 6.7 -5.7
      vertex 4.01258 6.95 -5.7
      vertex 7.73649 0 -5.7
    endloop
  endfacet
  facet normal 0 0 -1
    outer loop
      vertex -3.86825 6.7 -5.7
      vertex 4.01258 6.95 -5.7
      vertex 3.86825 6.7 -5.7
    endloop
  endfacet
  facet normal 0 0 -1
    outer loop
      vertex -3.86825 6.7 -5.7
      vertex -4.01258 6.95 -5.7
      vertex 4.01258 6.95 -5.7
    endloop
  endfacet
  facet normal 0 0 -1
    outer loop
      vertex -7.73649 0 -5.7
      vertex -4.01258 6.95 -5.7
      vertex -3.86825 6.7 -5.7
    endloop
  endfacet
  facet normal 0 0 -1
    outer loop
      vertex -4.01258 6.95 -5.7
      vertex -7.73649 0 -5.7
      vertex -8.02517 0 -5.7
    endloop
  endfacet
  facet normal -0.866025 0.5 0
    outer loop
      vertex 4.01258 -6.95 -6
      vertex 8.02517 0 -5.7
      vertex 8.02517 0 -6
    endloop
  endfacet
  facet normal -0.866025 0.5 0
    outer loop
      vertex 8.02517 0 -5.7
      vertex 4.01258 -6.95 -6
      vertex 4.01258 -6.95 -5.7
    endloop
  endfacet
  facet normal 0 1 -0
    outer loop
      vertex 4.01258 -6.95 -6
      vertex -4.01258 -6.95 -5.7
      vertex 4.01258 -6.95 -5.7
    endloop
  endfacet
  facet normal 0 1 0
    outer loop
      vertex -4.01258 -6.95 -5.7
      vertex 4.01258 -6.95 -6
      vertex -4.01258 -6.95 -6
    endloop
  endfacet
  facet normal -0.865525 -0.499711 0.0339804
    outer loop
      vertex 7.73649 0 0
      vertex 8.71799 0 25
      vertex 3.86825 6.7 0
    endloop
  endfacet
  facet normal -0.865525 -0.499711 0.0339804
    outer loop
      vertex 8.71799 0 25
      vertex 4.35899 7.55 25
      vertex 3.86825 6.7 0
    endloop
  endfacet
  facet normal -0.865525 0.499711 0.0339804
    outer loop
      vertex 4.35899 -7.55 25
      vertex 8.71799 0 25
      vertex 3.86825 -6.7 0
    endloop
  endfacet
  facet normal 0 0.999423 0.0339803
    outer loop
      vertex 3.86825 -6.7 0
      vertex -4.35899 -7.55 25
      vertex 4.35899 -7.55 25
    endloop
  endfacet
  facet normal 0 0.999423 0.0339803
    outer loop
      vertex -4.35899 -7.55 25
      vertex 3.86825 -6.7 0
      vertex -3.86825 -6.7 0
    endloop
  endfacet
  facet normal 0.865525 -0.499711 0.0339804
    outer loop
      vertex -7.73649 0 0
      vertex -3.86825 6.7 0
      vertex -8.71799 0 25
    endloop
  endfacet
  facet normal 0 -0.999423 0.0339803
    outer loop
      vertex -3.86825 6.7 0
      vertex 4.35899 7.55 25
      vertex -4.35899 7.55 25
    endloop
  endfacet
  facet normal 0 -0.999423 0.0339803
    outer loop
      vertex 4.35899 7.55 25
      vertex -3.86825 6.7 0
      vertex 3.86825 6.7 0
    endloop
  endfacet
  facet normal 0.865525 0.499711 0.0339804
    outer loop
      vertex -4.35899 -7.55 25
      vertex -3.86825 -6.7 0
      vertex -8.71799 0 25
    endloop
  endfacet
  facet normal 0.865525 0.499711 0.0339804
    outer loop
      vertex -3.86825 -6.7 0
      vertex -7.73649 0 0
      vertex -8.71799 0 25
    endloop
  endfacet
  facet normal 0.865525 -0.499711 0.0339804
    outer loop
      vertex -3.86825 6.7 0
      vertex -4.35899 7.55 25
      vertex -8.71799 0 25
    endloop
  endfacet
  facet normal -0.865525 0.499711 0.0339804
    outer loop
      vertex 8.71799 0 25
      vertex 7.73649 0 0
      vertex 3.86825 -6.7 0
    endloop
  endfacet
  facet normal -0.866025 -0.5 0
    outer loop
      vertex 8.71799 0 25
      vertex 4.35899 7.55 30
      vertex 4.35899 7.55 25
    endloop
  endfacet
  facet normal -0.866025 -0.5 0
    outer loop
      vertex 4.35899 7.55 30
      vertex 8.71799 0 25
      vertex 8.71799 0 30
    endloop
  endfacet
  facet normal 0.866025 -0.5 0
    outer loop
      vertex -8.71799 0 30
      vertex -4.35899 7.55 25
      vertex -4.35899 7.55 30
    endloop
  endfacet
  facet normal 0.866025 -0.5 0
    outer loop
      vertex -4.35899 7.55 25
      vertex -8.71799 0 30
      vertex -8.71799 0 25
    endloop
  endfacet
  facet normal 0 -1 0
    outer loop
      vertex -4.35899 7.55 25
      vertex 4.35899 7.55 30
      vertex -4.35899 7.55 30
    endloop
  endfacet
  facet normal 0 -1 -0
    outer loop
      vertex 4.35899 7.55 30
      vertex -4.35899 7.55 25
      vertex 4.35899 7.55 25
    endloop
  endfacet
  facet normal 0.866025 0.5 0
    outer loop
      vertex -4.35899 -7.55 30
      vertex -8.71799 0 25
      vertex -8.71799 0 30
    endloop
  endfacet
  facet normal 0.866025 0.5 0
    outer loop
      vertex -8.71799 0 25
      vertex -4.35899 -7.55 30
      vertex -4.35899 -7.55 25
    endloop
  endfacet
  facet normal 0 1 -0
    outer loop
      vertex 4.35899 -7.55 25
      vertex -4.35899 -7.55 30
      vertex 4.35899 -7.55 30
    endloop
  endfacet
  facet normal 0 1 0
    outer loop
      vertex -4.35899 -7.55 30
      vertex 4.35899 -7.55 25
      vertex -4.35899 -7.55 25
    endloop
  endfacet
  facet normal -0.866025 0.5 0
    outer loop
      vertex 4.35899 -7.55 25
      vertex 8.71799 0 30
      vertex 8.71799 0 25
    endloop
  endfacet
  facet normal -0.866025 0.5 0
    outer loop
      vertex 8.71799 0 30
      vertex 4.35899 -7.55 25
      vertex 4.35899 -7.55 30
    endloop
  endfacet
  facet normal -0.866037 -0.499981 0
    outer loop
      vertex 27.0383 5.2625 -5.7
      vertex 27.05 5.24224 2.5
      vertex 27.0383 5.2625 9.31758
    endloop
  endfacet
  facet normal -0.866025 -0.5 -6.33966e-08
    outer loop
      vertex 30.0766 0 -5.7
      vertex 27.05 5.24224 2.5
      vertex 27.0383 5.2625 -5.7
    endloop
  endfacet
  facet normal -0.866025 -0.5 0
    outer loop
      vertex 27.05 5.24224 2.5
      vertex 30.0766 0 -5.7
      vertex 30.0766 0 2.5
    endloop
  endfacet
  facet normal -0.866037 -0.499981 0
    outer loop
      vertex 27.0383 5.2625 9.31758
      vertex 27.05 5.24224 2.5
      vertex 27.05 5.24224 9.31983
    endloop
  endfacet
  facet normal 0.866025 -0.5 -1.43453e-08
    outer loop
      vertex 17.9234 0 -5.7
      vertex 20.9617 5.2625 15.7266
      vertex 18.906 1.70201 20.0411
    endloop
  endfacet
  facet normal 0.866024 -0.500002 -3.23104e-06
    outer loop
      vertex 17.9234 0 21.7334
      vertex 18.906 1.70201 20.0411
      vertex 18.5495 1.08445 20.7894
    endloop
  endfacet
  facet normal 0.866023 -0.500004 -5.63329e-06
    outer loop
      vertex 17.9234 0 21.7334
      vertex 18.5495 1.08445 20.7894
      vertex 18.2231 0.519048 21.343
    endloop
  endfacet
  facet normal 0.866025 -0.5 0
    outer loop
      vertex 18.906 1.70201 20.0411
      vertex 17.9234 0 21.7334
      vertex 17.9234 0 -5.7
    endloop
  endfacet
  facet normal 0.866025 -0.5 0
    outer loop
      vertex 20.9617 5.2625 15.7266
      vertex 17.9234 0 -5.7
      vertex 20.9617 5.2625 -5.7
    endloop
  endfacet
  facet normal 0 -1 0
    outer loop
      vertex 20.9617 5.2625 -5.7
      vertex 25.7936 5.2625 10.6559
      vertex 20.9617 5.2625 15.7266
    endloop
  endfacet
  facet normal 0 -1 -0
    outer loop
      vertex 25.7936 5.2625 10.6559
      vertex 20.9617 5.2625 -5.7
      vertex 27.0383 5.2625 9.31758
    endloop
  endfacet
  facet normal 0 -1 -0
    outer loop
      vertex 27.0383 5.2625 9.31758
      vertex 20.9617 5.2625 -5.7
      vertex 27.0383 5.2625 -5.7
    endloop
  endfacet
  facet normal 0 1 0
    outer loop
      vertex 20.9617 -5.2625 -5.7
      vertex 25.7936 -5.2625 10.6559
      vertex 27.0383 -5.2625 9.31758
    endloop
  endfacet
  facet normal 0 1 0
    outer loop
      vertex 20.9617 -5.2625 -5.7
      vertex 27.0383 -5.2625 9.31758
      vertex 27.0383 -5.2625 -5.7
    endloop
  endfacet
  facet normal 0 1 0
    outer loop
      vertex 25.7936 -5.2625 10.6559
      vertex 20.9617 -5.2625 -5.7
      vertex 20.9617 -5.2625 15.7266
    endloop
  endfacet
  facet normal 0.866023 0.500004 -5.63329e-06
    outer loop
      vertex 18.5495 -1.08445 20.7894
      vertex 17.9234 0 21.7334
      vertex 18.2231 -0.519048 21.343
    endloop
  endfacet
  facet normal 0.866024 0.500002 -3.23104e-06
    outer loop
      vertex 17.9234 0 21.7334
      vertex 18.5495 -1.08445 20.7894
      vertex 18.906 -1.70201 20.0411
    endloop
  endfacet
  facet normal 0.866025 0.5 0
    outer loop
      vertex 17.9234 0 21.7334
      vertex 18.906 -1.70201 20.0411
      vertex 17.9234 0 -5.7
    endloop
  endfacet
  facet normal 0.866025 0.5 -1.43453e-08
    outer loop
      vertex 20.9617 -5.2625 15.7266
      vertex 17.9234 0 -5.7
      vertex 18.906 -1.70201 20.0411
    endloop
  endfacet
  facet normal 0.866025 0.5 0
    outer loop
      vertex 17.9234 0 -5.7
      vertex 20.9617 -5.2625 15.7266
      vertex 20.9617 -5.2625 -5.7
    endloop
  endfacet
  facet normal -0.866025 0.5 0
    outer loop
      vertex 30.0766 0 -5.7
      vertex 27.05 -5.24224 2.5
      vertex 30.0766 0 2.5
    endloop
  endfacet
  facet normal -0.866025 0.5 -6.33966e-08
    outer loop
      vertex 27.0383 -5.2625 -5.7
      vertex 27.05 -5.24224 2.5
      vertex 30.0766 0 -5.7
    endloop
  endfacet
  facet normal -0.866037 0.499981 0
    outer loop
      vertex 27.0383 -5.2625 9.31758
      vertex 27.05 -5.24224 2.5
      vertex 27.0383 -5.2625 -5.7
    endloop
  endfacet
  facet normal -0.866037 0.499981 0
    outer loop
      vertex 27.05 -5.24224 2.5
      vertex 27.0383 -5.2625 9.31758
      vertex 27.05 -5.24224 9.31983
    endloop
  endfacet
  facet normal -0.866025 -0.5 0
    outer loop
      vertex 30.3653 0 -6
      vertex 27.1826 5.5125 -5.7
      vertex 27.1826 5.5125 -6
    endloop
  endfacet
  facet normal -0.866025 -0.5 0
    outer loop
      vertex 27.1826 5.5125 -5.7
      vertex 30.3653 0 -6
      vertex 30.3653 0 -5.7
    endloop
  endfacet
  facet normal 0.866025 -0.5 0
    outer loop
      vertex 17.6347 0 -5.7
      vertex 20.8174 5.5125 -6
      vertex 20.8174 5.5125 -5.7
    endloop
  endfacet
  facet normal 0.866025 -0.5 0
    outer loop
      vertex 20.8174 5.5125 -6
      vertex 17.6347 0 -5.7
      vertex 17.6347 0 -6
    endloop
  endfacet
  facet normal 0 -1 0
    outer loop
      vertex 20.8174 5.5125 -6
      vertex 27.1826 5.5125 -5.7
      vertex 20.8174 5.5125 -5.7
    endloop
  endfacet
  facet normal 0 -1 -0
    outer loop
      vertex 27.1826 5.5125 -5.7
      vertex 20.8174 5.5125 -6
      vertex 27.1826 5.5125 -6
    endloop
  endfacet
  facet normal 0 0 -1
    outer loop
      vertex 27.1826 -5.5125 -5.7
      vertex 30.0766 0 -5.7
      vertex 30.3653 0 -5.7
    endloop
  endfacet
  facet normal 0 0 -1
    outer loop
      vertex 27.1826 -5.5125 -5.7
      vertex 27.0383 -5.2625 -5.7
      vertex 30.0766 0 -5.7
    endloop
  endfacet
  facet normal 0 0 -1
    outer loop
      vertex 27.1826 -5.5125 -5.7
      vertex 20.9617 -5.2625 -5.7
      vertex 27.0383 -5.2625 -5.7
    endloop
  endfacet
  facet normal 0 0 -1
    outer loop
      vertex 20.8174 -5.5125 -5.7
      vertex 20.9617 -5.2625 -5.7
      vertex 27.1826 -5.5125 -5.7
    endloop
  endfacet
  facet normal 0 0 -1
    outer loop
      vertex 20.8174 -5.5125 -5.7
      vertex 17.9234 0 -5.7
      vertex 20.9617 -5.2625 -5.7
    endloop
  endfacet
  facet normal -0 -0 -1
    outer loop
      vertex 17.9234 0 -5.7
      vertex 20.8174 -5.5125 -5.7
      vertex 17.6347 0 -5.7
    endloop
  endfacet
  facet normal 0 0 -1
    outer loop
      vertex 30.0766 0 -5.7
      vertex 27.1826 5.5125 -5.7
      vertex 30.3653 0 -5.7
    endloop
  endfacet
  facet normal 0 0 -1
    outer loop
      vertex 27.0383 5.2625 -5.7
      vertex 27.1826 5.5125 -5.7
      vertex 30.0766 0 -5.7
    endloop
  endfacet
  facet normal 0 0 -1
    outer loop
      vertex 20.9617 5.2625 -5.7
      vertex 27.1826 5.5125 -5.7
      vertex 27.0383 5.2625 -5.7
    endloop
  endfacet
  facet normal 0 0 -1
    outer loop
      vertex 20.9617 5.2625 -5.7
      vertex 20.8174 5.5125 -5.7
      vertex 27.1826 5.5125 -5.7
    endloop
  endfacet
  facet normal 0 0 -1
    outer loop
      vertex 17.9234 0 -5.7
      vertex 20.8174 5.5125 -5.7
      vertex 20.9617 5.2625 -5.7
    endloop
  endfacet
  facet normal 0 0 -1
    outer loop
      vertex 20.8174 5.5125 -5.7
      vertex 17.9234 0 -5.7
      vertex 17.6347 0 -5.7
    endloop
  endfacet
  facet normal 0 1 -0
    outer loop
      vertex 27.1826 -5.5125 -6
      vertex 20.8174 -5.5125 -5.7
      vertex 27.1826 -5.5125 -5.7
    endloop
  endfacet
  facet normal 0 1 0
    outer loop
      vertex 20.8174 -5.5125 -5.7
      vertex 27.1826 -5.5125 -6
      vertex 20.8174 -5.5125 -6
    endloop
  endfacet
  facet normal 0.866025 0.5 0
    outer loop
      vertex 20.8174 -5.5125 -5.7
      vertex 17.6347 0 -6
      vertex 17.6347 0 -5.7
    endloop
  endfacet
  facet normal 0.866025 0.5 0
    outer loop
      vertex 17.6347 0 -6
      vertex 20.8174 -5.5125 -5.7
      vertex 20.8174 -5.5125 -6
    endloop
  endfacet
  facet normal -0.866025 0.5 0
    outer loop
      vertex 27.1826 -5.5125 -6
      vertex 30.3653 0 -5.7
      vertex 30.3653 0 -6
    endloop
  endfacet
  facet normal -0.866025 0.5 0
    outer loop
      vertex 30.3653 0 -5.7
      vertex 27.1826 -5.5125 -6
      vertex 27.1826 -5.5125 -5.7
    endloop
  endfacet
  facet normal -0.866026 -0.499999 0
    outer loop
      vertex 33.1383 5.2625 2.5
      vertex 33.8911 3.95858 2.70797
      vertex 33.1383 5.2625 2.70797
    endloop
  endfacet
  facet normal -0.866021 -0.500007 -6.75038e-05
    outer loop
      vertex 33.1383 5.2625 2.5
      vertex 33.9338 3.8846 2.68475
      vertex 33.8911 3.95858 2.70797
    endloop
  endfacet
  facet normal -0.866026 -0.499999 1.02771e-05
    outer loop
      vertex 33.9338 3.8846 2.68475
      vertex 33.1383 5.2625 2.5
      vertex 34.2737 3.29587 2.5
    endloop
  endfacet
  facet normal 0.866001 -0.500042 0
    outer loop
      vertex 27.05 5.24224 2.5
      vertex 27.0617 5.2625 9.29243
      vertex 27.05 5.24224 9.31983
    endloop
  endfacet
  facet normal 0.866001 -0.500042 0
    outer loop
      vertex 27.0617 5.2625 9.29243
      vertex 27.05 5.24224 2.5
      vertex 27.0617 5.2625 2.5
    endloop
  endfacet
  facet normal 0 -1 0
    outer loop
      vertex 27.0617 5.2625 2.5
      vertex 32.2432 5.2625 3.72125
      vertex 27.0617 5.2625 9.29243
    endloop
  endfacet
  facet normal 0 -1 -0
    outer loop
      vertex 32.2432 5.2625 3.72125
      vertex 27.0617 5.2625 2.5
      vertex 32.7352 5.2625 3.16427
    endloop
  endfacet
  facet normal 0 -1 0
    outer loop
      vertex 33.1383 5.2625 2.5
      vertex 32.7352 5.2625 3.16427
      vertex 27.0617 5.2625 2.5
    endloop
  endfacet
  facet normal 0 -1 0
    outer loop
      vertex 32.7352 5.2625 3.16427
      vertex 33.1383 5.2625 2.5
      vertex 33.1383 5.2625 2.70797
    endloop
  endfacet
  facet normal 0.866001 0.500042 0
    outer loop
      vertex 27.0617 -5.2625 9.29243
      vertex 27.05 -5.24224 2.5
      vertex 27.05 -5.24224 9.31983
    endloop
  endfacet
  facet normal 0.866001 0.500042 0
    outer loop
      vertex 27.05 -5.24224 2.5
      vertex 27.0617 -5.2625 9.29243
      vertex 27.0617 -5.2625 2.5
    endloop
  endfacet
  facet normal 0 0 1
    outer loop
      vertex 34.8919 0.0062692 2.5
      vertex 34.8919 -0.0062692 2.5
      vertex 34.8925 0 2.5
    endloop
  endfacet
  facet normal 0 0 1
    outer loop
      vertex 30.0766 0 2.5
      vertex 34.8919 0.0062692 2.5
      vertex 34.6763 2.05677 2.5
    endloop
  endfacet
  facet normal 0 0 1
    outer loop
      vertex 34.8919 0.0062692 2.5
      vertex 30.0766 0 2.5
      vertex 34.8919 -0.0062692 2.5
    endloop
  endfacet
  facet normal 0 0 1
    outer loop
      vertex 30.0766 0 2.5
      vertex 34.6763 2.05677 2.5
      vertex 34.2737 3.29587 2.5
    endloop
  endfacet
  facet normal 0 0 1
    outer loop
      vertex 34.8919 -0.0062692 2.5
      vertex 30.0766 0 2.5
      vertex 34.6763 -2.05677 2.5
    endloop
  endfacet
  facet normal 0 0 1
    outer loop
      vertex 30.0766 0 2.5
      vertex 34.2737 3.29587 2.5
      vertex 33.1383 5.2625 2.5
    endloop
  endfacet
  facet normal 0 0 1
    outer loop
      vertex 34.6763 -2.05677 2.5
      vertex 30.0766 0 2.5
      vertex 34.2737 -3.29587 2.5
    endloop
  endfacet
  facet normal 0 0 1
    outer loop
      vertex 34.2737 -3.29587 2.5
      vertex 30.0766 0 2.5
      vertex 33.1383 -5.2625 2.5
    endloop
  endfacet
  facet normal -0 0 1
    outer loop
      vertex 27.0617 5.2625 2.5
      vertex 30.0766 0 2.5
      vertex 33.1383 5.2625 2.5
    endloop
  endfacet
  facet normal 0 0 1
    outer loop
      vertex 30.0766 0 2.5
      vertex 27.0617 5.2625 2.5
      vertex 27.05 5.24224 2.5
    endloop
  endfacet
  facet normal 0 0 1
    outer loop
      vertex 30.0766 0 2.5
      vertex 27.0617 -5.2625 2.5
      vertex 33.1383 -5.2625 2.5
    endloop
  endfacet
  facet normal 0 -0 1
    outer loop
      vertex 27.0617 -5.2625 2.5
      vertex 30.0766 0 2.5
      vertex 27.05 -5.24224 2.5
    endloop
  endfacet
  facet normal 0 1 0
    outer loop
      vertex 27.0617 -5.2625 2.5
      vertex 32.2432 -5.2625 3.72125
      vertex 32.7352 -5.2625 3.16427
    endloop
  endfacet
  facet normal 0 1 -0
    outer loop
      vertex 33.1383 -5.2625 2.5
      vertex 32.7352 -5.2625 3.16427
      vertex 33.1383 -5.2625 2.70797
    endloop
  endfacet
  facet normal 0 1 0
    outer loop
      vertex 32.7352 -5.2625 3.16427
      vertex 33.1383 -5.2625 2.5
      vertex 27.0617 -5.2625 2.5
    endloop
  endfacet
  facet normal 0 1 0
    outer loop
      vertex 32.2432 -5.2625 3.72125
      vertex 27.0617 -5.2625 2.5
      vertex 27.0617 -5.2625 9.29243
    endloop
  endfacet
  facet normal -0.866026 0.499999 1.02771e-05
    outer loop
      vertex 33.1383 -5.2625 2.5
      vertex 33.9338 -3.8846 2.68475
      vertex 34.2737 -3.29587 2.5
    endloop
  endfacet
  facet normal -0.866021 0.500007 -6.75038e-05
    outer loop
      vertex 33.1383 -5.2625 2.5
      vertex 33.8911 -3.95858 2.70797
      vertex 33.9338 -3.8846 2.68475
    endloop
  endfacet
  facet normal -0.866026 0.499999 0
    outer loop
      vertex 33.8911 -3.95858 2.70797
      vertex 33.1383 -5.2625 2.5
      vertex 33.1383 -5.2625 2.70797
    endloop
  endfacet
endsolid OpenSCAD_Model
